<?xml version="1.0" encoding="UTF-8" standalone="no"?>
<svg
   xmlns:dc="http://purl.org/dc/elements/1.1/"
   xmlns:cc="http://creativecommons.org/ns#"
   xmlns:rdf="http://www.w3.org/1999/02/22-rdf-syntax-ns#"
   xmlns:svg="http://www.w3.org/2000/svg"
   xmlns="http://www.w3.org/2000/svg"
   viewBox="0 0 666.66669 666.66669"
   height="666.66669"
   width="666.66669"
   xml:space="preserve"
   id="svg2"
   version="1.1"><metadata
     id="metadata8"><rdf:RDF><cc:Work
         rdf:about=""><dc:format>image/svg+xml</dc:format><dc:type
           rdf:resource="http://purl.org/dc/dcmitype/StillImage" /></cc:Work></rdf:RDF></metadata><defs
     id="defs6"><clipPath
       id="clipPath18"
       clipPathUnits="userSpaceOnUse"><path
         id="path16"
         d="M 0,500 H 500 V 0 H 0 Z" /></clipPath></defs><g
     transform="matrix(1.3333333,0,0,-1.3333333,0,666.66667)"
     id="g10"><g
       id="g12"><g
         clip-path="url(#clipPath18)"
         id="g14"><g
           transform="translate(175.335,168.7266)"
           id="g20"><path
             id="path22"
             style="fill:#d94e3a;fill-opacity:1;fill-rule:nonzero;stroke:none"
             d="m 0,0 c -5.75,-28.273 -17.142,-55.32 -37.538,-55.32 -15.514,0 -25.992,12.429 -25.992,34.718 0,43.791 35.746,64.186 70.788,78.215 C 6.082,37.105 2.851,14.02 0,0 m 184.067,-28.064 c -8.44,31.406 -6.389,88.402 -3.075,129.401 24.724,4.378 42.677,6.892 51.343,8.971 13.318,3.197 18.337,14.894 18.337,29.356 0,4.19 -1.734,13.144 -4.58,16.178 -18.895,-2.463 -39.81,-6.05 -60.674,-9.621 4.122,37.162 9.672,80.389 11.583,95.849 1.27,10.256 0.287,16.697 -10.341,17.959 -6.041,0.717 -23.946,-1.907 -29.637,-2.841 -9.361,-1.535 -12.923,-9.513 -14.112,-15.731 -4.524,-23.721 -8.843,-62.396 -11.893,-104.765 -21.575,-4.25 -46.679,-9.776 -67.537,-15.197 1.921,34.87 3.54,70.153 2.331,89.563 -1.778,28.406 -20.873,47.052 -45.856,47.052 -31.901,0 -55.633,-10.689 -74.907,-26.973 -12.598,-10.65 -19.924,-22.818 -19.924,-32.572 0,-9.961 8.264,-22.754 21.438,-22.754 10.195,13.934 37.066,38.089 50.504,38.089 13.405,0 16.189,-9.442 16.189,-21.301 0,-9.33 -1.8,-51.458 -3.627,-88.088 -62.365,-25.982 -115.902,-55.355 -115.902,-127.183 0,-44.117 26.211,-74.586 68.75,-74.586 50.485,0 81.507,43.455 89.773,93.445 4.092,24.749 7.587,51.668 8.668,78.921 21.192,5.542 46.24,11.187 67.351,15.751 -2.893,-57.879 -3.795,-117.312 9.169,-147.99 10.075,-23.838 29.975,-40.473 61.537,-40.473 19.763,0 35.671,6.254 44.665,15.1 4.067,4.002 6,10.434 6,15.43 0,7.615 -4.32,14.902 -10.583,19.09 -7.222,-4.094 -17.179,-6.616 -25.221,-6.616 -16.759,0 -25.613,11.069 -29.769,26.536" /></g></g></g></g></svg>